<svg xmlns="http://www.w3.org/2000/svg" width="156" height="26" viewBox="0 0 156 26" fill="none">
    <g clip-path="url(#clip0_3055_1530)">
        <path d="M43.4858 9.08024C43.4742 9.07941 43.4632 9.07543 43.4538 9.06873C43.4444 9.06203 43.4371 9.05289 43.4327 9.04232L40.7924 2.85649C40.7875 2.84571 40.7795 2.83656 40.7694 2.83014C40.7594 2.82373 40.7476 2.82031 40.7356 2.82031C40.7237 2.82031 40.7119 2.82373 40.7019 2.83014C40.6918 2.83656 40.6838 2.84571 40.6789 2.85649L38.0386 9.04232C38.0342 9.05289 38.0269 9.06203 38.0175 9.06873C38.0081 9.07543 37.9971 9.07941 37.9855 9.08024L31.2054 9.64538C31.1933 9.6464 31.1818 9.65086 31.1723 9.65823C31.1628 9.66559 31.1556 9.67553 31.1517 9.68683C31.1478 9.69814 31.1474 9.71031 31.1504 9.72187C31.1534 9.73343 31.1598 9.74386 31.1687 9.7519L36.3193 14.1394C36.3281 14.1468 36.3347 14.1564 36.3382 14.1673C36.3418 14.1781 36.3422 14.1897 36.3395 14.2008L34.7886 20.7351C34.786 20.7467 34.7868 20.7588 34.791 20.77C34.7952 20.7811 34.8026 20.7908 34.8123 20.7979C34.822 20.805 34.8336 20.8091 34.8456 20.8098C34.8577 20.8106 34.8697 20.8078 34.8802 20.8019L40.7027 17.328C40.7126 17.3219 40.724 17.3187 40.7356 17.3187C40.7473 17.3187 40.7587 17.3219 40.7686 17.328L46.5911 20.8019C46.6016 20.8078 46.6136 20.8106 46.6257 20.8098C46.6377 20.8091 46.6493 20.805 46.659 20.7979C46.6687 20.7908 46.6761 20.7811 46.6803 20.77C46.6845 20.7588 46.6853 20.7467 46.6827 20.7351L45.1318 14.2008C45.1291 14.1897 45.1295 14.1781 45.1331 14.1673C45.1366 14.1564 45.1432 14.1468 45.152 14.1394L50.3026 9.7519C50.3115 9.74386 50.3179 9.73343 50.3209 9.72187C50.3239 9.71031 50.3235 9.69814 50.3196 9.68683C50.3157 9.67553 50.3085 9.66559 50.299 9.65823C50.2895 9.65086 50.278 9.6464 50.2659 9.64538L43.4858 9.08024Z" stroke="#FDA680" stroke-width="2"/>
        <path d="M39.7922 0H41.4401C44.9348 0.349074 47.8229 1.7213 50.1043 4.11667C54.1105 8.32361 54.8465 14.7261 51.7778 19.6824C49.5293 23.3139 46.1371 25.4198 41.6012 26H39.4955C33.3563 25.3988 28.4932 20.9914 27.5337 15.0674C26.2795 7.32333 31.9391 0.624722 39.7922 0ZM43.4926 9.08194C43.481 9.08112 43.47 9.07714 43.4606 9.07044C43.4512 9.06374 43.4439 9.05459 43.4395 9.04403L40.7992 2.85819C40.7943 2.84742 40.7863 2.83827 40.7762 2.83185C40.7662 2.82543 40.7544 2.82202 40.7424 2.82202C40.7305 2.82202 40.7187 2.82543 40.7087 2.83185C40.6986 2.83827 40.6906 2.84742 40.6857 2.85819L38.0454 9.04403C38.041 9.05459 38.0337 9.06374 38.0243 9.07044C38.0149 9.07714 38.0039 9.08112 37.9923 9.08194L31.2122 9.64708C31.2001 9.6481 31.1886 9.65257 31.1791 9.65993C31.1696 9.66729 31.1624 9.67724 31.1585 9.68854C31.1546 9.69984 31.1542 9.71202 31.1572 9.72357C31.1602 9.73513 31.1666 9.74557 31.1755 9.75361L36.3261 14.1411C36.3349 14.1485 36.3415 14.1581 36.345 14.169C36.3486 14.1798 36.349 14.1914 36.3463 14.2025L34.7954 20.7368C34.7928 20.7484 34.7936 20.7605 34.7978 20.7717C34.802 20.7828 34.8094 20.7925 34.8191 20.7996C34.8288 20.8067 34.8404 20.8108 34.8524 20.8115C34.8645 20.8123 34.8765 20.8095 34.887 20.8036L40.7095 17.3297C40.7194 17.3236 40.7308 17.3204 40.7424 17.3204C40.7541 17.3204 40.7655 17.3236 40.7754 17.3297L46.5979 20.8036C46.6084 20.8095 46.6204 20.8123 46.6325 20.8115C46.6445 20.8108 46.6561 20.8067 46.6658 20.7996C46.6755 20.7925 46.6829 20.7828 46.6871 20.7717C46.6913 20.7605 46.6921 20.7484 46.6895 20.7368L45.1386 14.2025C45.1359 14.1914 45.1363 14.1798 45.1399 14.169C45.1434 14.1581 45.15 14.1485 45.1588 14.1411L50.3094 9.75361C50.3183 9.74557 50.3247 9.73513 50.3277 9.72357C50.3307 9.71202 50.3302 9.69984 50.3264 9.68854C50.3225 9.67724 50.3153 9.66729 50.3058 9.65993C50.2963 9.65257 50.2848 9.6481 50.2727 9.64708L43.4926 9.08194Z" fill="#FB4D00"/>
        <path d="M43.4858 9.08024L50.2659 9.64538C50.278 9.6464 50.2895 9.65086 50.299 9.65823C50.3085 9.66559 50.3157 9.67553 50.3196 9.68683C50.3235 9.69814 50.3239 9.71031 50.3209 9.72187C50.3179 9.73343 50.3115 9.74386 50.3026 9.7519L45.152 14.1394C45.1432 14.1468 45.1366 14.1564 45.1331 14.1673C45.1295 14.1781 45.1291 14.1897 45.1318 14.2008L46.6827 20.7351C46.6853 20.7467 46.6845 20.7588 46.6803 20.77C46.6761 20.7811 46.6687 20.7908 46.659 20.7979C46.6493 20.805 46.6377 20.8091 46.6257 20.8098C46.6136 20.8106 46.6016 20.8078 46.5911 20.8019L40.7686 17.328C40.7587 17.3219 40.7473 17.3187 40.7356 17.3187C40.724 17.3187 40.7126 17.3219 40.7027 17.328L34.8802 20.8019C34.8697 20.8078 34.8577 20.8106 34.8456 20.8098C34.8336 20.8091 34.822 20.805 34.8123 20.7979C34.8026 20.7908 34.7952 20.7811 34.791 20.77C34.7868 20.7588 34.786 20.7467 34.7886 20.7351L36.3395 14.2008C36.3422 14.1897 36.3418 14.1781 36.3382 14.1673C36.3347 14.1564 36.3281 14.1468 36.3193 14.1394L31.1687 9.7519C31.1598 9.74386 31.1534 9.73343 31.1504 9.72187C31.1474 9.71031 31.1478 9.69814 31.1517 9.68683C31.1556 9.67553 31.1628 9.66559 31.1723 9.65823C31.1818 9.65086 31.1933 9.6464 31.2054 9.64538L37.9855 9.08024C37.9971 9.07941 38.0081 9.07543 38.0175 9.06873C38.0269 9.06203 38.0342 9.05289 38.0386 9.04232L40.6789 2.85649C40.6838 2.84571 40.6918 2.83656 40.7019 2.83014C40.7119 2.82373 40.7237 2.82031 40.7356 2.82031C40.7476 2.82031 40.7594 2.82373 40.7694 2.83014C40.7795 2.83656 40.7875 2.84571 40.7924 2.85649L43.4327 9.04232C43.4371 9.05289 43.4444 9.06203 43.4538 9.06873C43.4632 9.07543 43.4742 9.07941 43.4858 9.08024Z" fill="white"/>
        <path d="M64.0853 9.79783C64.3062 10.1373 64.6718 10.378 65.1821 10.5201C67.6118 11.1971 72.0062 11.7569 72.3412 14.9744C72.7532 18.9231 69.5435 21.422 65.8705 21.9276C62.4454 22.397 59.1813 21.8914 56.0784 20.4109C56.0598 20.402 56.0432 20.3894 56.0297 20.374C56.0161 20.3585 56.0059 20.3405 55.9995 20.3209C55.9932 20.3013 55.9909 20.2807 55.9928 20.2602C55.9948 20.2396 56.0008 20.2197 56.0107 20.2014L58.2115 16.1245C58.218 16.1127 58.2268 16.1022 58.2375 16.0938C58.2481 16.0853 58.2604 16.0791 58.2735 16.0754C58.2867 16.0717 58.3004 16.0706 58.314 16.0722C58.3275 16.0738 58.3406 16.0781 58.3525 16.0848C60.4087 17.2403 63.7447 18.1503 65.9456 17.3198C66.4644 17.1236 66.6005 16.7474 66.3539 16.1913C66.3283 16.1347 66.2868 16.0926 66.2294 16.0649C63.406 14.7144 58.5576 14.8949 58.1895 11.0455C57.7977 6.95047 60.9854 4.66103 64.7371 4.14283C67.1443 3.81061 69.5056 4.00079 71.8212 4.71339C72.4938 4.92042 72.9778 5.13107 73.2732 5.34533C73.6046 5.58366 73.3647 5.86894 73.2293 6.13978C72.6629 7.2857 72.0849 8.42681 71.4953 9.56311C71.4648 9.62209 71.4196 9.63593 71.3598 9.60464C69.6424 8.70908 67.8126 8.32991 65.8705 8.46714C65.1601 8.51769 64.1842 8.79755 64.0469 9.61186C64.0347 9.67927 64.0475 9.74126 64.0853 9.79783Z" fill="white"/>
        <path d="M0 21.6109V21.4285L3.34887 4.6134C3.38549 4.43164 3.49779 4.34016 3.68578 4.33896L9.1824 4.32812C9.26296 4.32812 9.31545 4.36604 9.33986 4.44188L12.1523 13.3035C12.1597 13.3265 12.1735 13.3469 12.192 13.3625C12.2106 13.3782 12.2331 13.3884 12.2573 13.3922C12.2814 13.3959 12.306 13.393 12.3286 13.3837C12.3511 13.3744 12.3705 13.3592 12.3848 13.3397L18.8793 4.42201C18.9232 4.36183 18.9824 4.33174 19.0569 4.33174H24.8447C24.8603 4.33172 24.8758 4.33512 24.89 4.3417C24.9041 4.34827 24.9166 4.35786 24.9266 4.36976C24.9366 4.38167 24.9438 4.3956 24.9476 4.41057C24.9515 4.42553 24.952 4.44116 24.949 4.45632L21.5818 21.5387C21.5742 21.5792 21.5522 21.6158 21.5198 21.6422C21.4873 21.6686 21.4465 21.6831 21.4042 21.6831L15.871 21.6578C15.8051 21.6578 15.7782 21.6259 15.7904 21.5622L17.2369 14.2153C17.2427 14.1884 17.2388 14.1603 17.2259 14.1358C17.2131 14.1113 17.192 14.092 17.1663 14.0811C17.1406 14.0703 17.1119 14.0685 17.085 14.0762C17.0581 14.0839 17.0348 14.1005 17.019 14.1233C15.2576 16.586 13.5005 19.0049 11.7476 21.3798C11.4638 21.7644 10.3561 21.7228 9.91845 21.694C9.85498 21.6903 9.81348 21.6584 9.79395 21.5983L7.43563 14.2442C7.4291 14.2253 7.41646 14.2089 7.39965 14.1977C7.38283 14.1864 7.36275 14.1809 7.34246 14.1819C7.32216 14.1829 7.30276 14.1904 7.28719 14.2033C7.27162 14.2162 7.26074 14.2337 7.2562 14.2533L5.8024 21.5134C5.79431 21.5529 5.77252 21.5884 5.74078 21.6138C5.70903 21.6391 5.66931 21.6528 5.62845 21.6524L0 21.6109Z" fill="white"/>
        <path d="M82.1101 8.66927H77.2599C77.2423 8.66935 77.225 8.66556 77.2092 8.65818C77.1933 8.65079 77.1793 8.63999 77.1681 8.62653C77.1569 8.61308 77.1488 8.59732 77.1444 8.58036C77.14 8.5634 77.1394 8.54568 77.1427 8.52844L77.8897 4.56344C77.919 4.41177 78.0118 4.33594 78.168 4.33594H93.9255C94.0793 4.33594 94.1416 4.40997 94.1123 4.55802L93.3249 8.49774C93.3103 8.57237 93.2663 8.61992 93.1931 8.64038C92.9429 8.70779 92.692 8.73186 92.4406 8.7126C91.0344 8.60608 89.5769 8.66385 88.1652 8.67288C88.0859 8.67288 88.0389 8.7114 88.0242 8.78844L85.5103 21.5393C85.5031 21.5753 85.4835 21.6077 85.4548 21.6311C85.4261 21.6545 85.39 21.6673 85.3528 21.6675L79.7299 21.6729C79.7239 21.673 79.718 21.6718 79.7125 21.6693C79.7071 21.6669 79.7023 21.6633 79.6984 21.6588C79.6946 21.6543 79.6918 21.6491 79.6903 21.6434C79.6887 21.6377 79.6885 21.6317 79.6896 21.6259L82.2255 8.8083C82.2438 8.71561 82.2054 8.66927 82.1101 8.66927Z" fill="white"/>
        <path d="M111.17 12.8437C112.656 13.5858 113.436 14.9057 113.316 16.5632C113.057 20.1075 109.271 21.5808 106.162 21.6458C103.971 21.6915 100.298 21.6939 95.143 21.653C95.0845 21.6518 95.0613 21.6229 95.0735 21.5664L98.5469 4.43524C98.5603 4.36904 98.6012 4.33594 98.6695 4.33594C101.624 4.33594 104.576 4.33594 107.526 4.33594C110.243 4.33594 114.259 5.06358 114.118 8.6476C114.046 10.464 112.84 11.977 111.175 12.7029C111.161 12.7086 111.149 12.7181 111.141 12.7302C111.132 12.7424 111.127 12.7568 111.127 12.7716C111.126 12.7864 111.13 12.801 111.138 12.8138C111.145 12.8266 111.156 12.837 111.17 12.8437ZM103.293 8.71622L102.96 10.7511C102.951 10.804 102.974 10.8305 103.027 10.8305C103.899 10.8414 105.807 11.0237 106.554 10.6969C107.522 10.2744 107.759 8.66205 106.354 8.66566C105.342 8.66927 104.341 8.67048 103.351 8.66927C103.337 8.66939 103.323 8.67417 103.313 8.68276C103.302 8.69135 103.295 8.7032 103.293 8.71622ZM102.006 15.3047L101.674 17.2493C101.664 17.3095 101.69 17.3395 101.751 17.3395C102.866 17.3371 103.983 17.3293 105.104 17.3161C106.649 17.2962 107.178 15.1657 105.268 15.1675C104.219 15.1699 103.185 15.1705 102.167 15.1693C102.128 15.1692 102.09 15.1828 102.061 15.2077C102.031 15.2325 102.012 15.2669 102.006 15.3047Z" fill="white"/>
        <path d="M125.04 10.8359H132.318C132.339 10.8359 132.359 10.8404 132.378 10.8491C132.397 10.8578 132.414 10.8705 132.428 10.8864C132.441 10.9022 132.451 10.9208 132.456 10.9408C132.462 10.9608 132.463 10.9817 132.459 11.0021L131.681 15.0537C131.675 15.0862 131.657 15.1156 131.631 15.1367C131.606 15.1579 131.573 15.1694 131.54 15.1693H124.108C124.074 15.1692 124.042 15.1807 124.016 15.2018C123.99 15.2229 123.973 15.2523 123.967 15.2848L123.606 17.1698C123.602 17.1902 123.603 17.2111 123.608 17.2311C123.614 17.2511 123.623 17.2696 123.637 17.2855C123.65 17.3014 123.667 17.3141 123.686 17.3228C123.705 17.3315 123.726 17.336 123.747 17.3359H132.093C132.114 17.3359 132.134 17.3404 132.153 17.3491C132.172 17.3578 132.189 17.3705 132.203 17.3864C132.216 17.4022 132.226 17.4208 132.231 17.4408C132.236 17.4608 132.237 17.4817 132.234 17.5021L131.476 21.5537C131.469 21.5862 131.452 21.6156 131.426 21.6367C131.401 21.6579 131.368 21.6694 131.335 21.6693H117.097C117.076 21.6694 117.055 21.6649 117.036 21.6561C117.016 21.6472 116.999 21.6343 116.986 21.6183C116.972 21.6022 116.963 21.5834 116.958 21.5632C116.952 21.5429 116.952 21.5218 116.956 21.5014L120.312 4.44969C120.318 4.41781 120.336 4.38908 120.361 4.36835C120.386 4.34761 120.418 4.33617 120.451 4.33594H134.522C134.543 4.33582 134.564 4.34033 134.584 4.34915C134.603 4.35798 134.62 4.37089 134.633 4.38696C134.647 4.40302 134.656 4.42185 134.662 4.44206C134.667 4.46228 134.667 4.48339 134.663 4.50386L133.861 8.55552C133.855 8.5874 133.838 8.61614 133.812 8.63687C133.787 8.6576 133.755 8.66905 133.722 8.66927H125.371C125.337 8.66923 125.305 8.681 125.279 8.70249C125.253 8.72398 125.236 8.75379 125.23 8.78663L124.899 10.6716C124.895 10.6918 124.896 10.7126 124.902 10.7323C124.907 10.7521 124.917 10.7704 124.93 10.7861C124.944 10.8017 124.961 10.8143 124.979 10.8229C124.998 10.8315 125.019 10.836 125.04 10.8359Z" fill="white"/>
        <path d="M138.253 8.49233L139.012 4.45872C139.019 4.42413 139.037 4.39289 139.065 4.37044C139.092 4.348 139.127 4.33578 139.162 4.33594H155.099C155.122 4.33606 155.144 4.34104 155.164 4.35054C155.184 4.36005 155.202 4.37383 155.216 4.3909C155.23 4.40798 155.241 4.42792 155.246 4.44932C155.251 4.47072 155.252 4.49304 155.248 4.51469L154.431 8.54649C154.424 8.58044 154.406 8.61103 154.379 8.63308C154.352 8.65513 154.318 8.66728 154.283 8.66747L149.273 8.67108C149.238 8.67126 149.204 8.68341 149.177 8.70546C149.15 8.72751 149.132 8.7581 149.125 8.79205L146.622 21.5483C146.615 21.5822 146.597 21.6128 146.57 21.6349C146.543 21.6569 146.509 21.6691 146.474 21.6693H140.99C140.967 21.6694 140.945 21.6646 140.925 21.6552C140.904 21.6459 140.886 21.6321 140.872 21.615C140.857 21.5979 140.847 21.5779 140.842 21.5563C140.836 21.5348 140.835 21.5123 140.84 21.4905L143.308 8.84802C143.312 8.82622 143.312 8.80375 143.306 8.78222C143.3 8.76069 143.29 8.74064 143.276 8.72354C143.261 8.70643 143.243 8.69268 143.223 8.6833C143.203 8.67391 143.18 8.66912 143.158 8.66927H138.403C138.38 8.66937 138.358 8.66461 138.338 8.65533C138.318 8.64605 138.3 8.63248 138.285 8.61558C138.271 8.59869 138.261 8.57888 138.255 8.55758C138.249 8.53627 138.248 8.51399 138.253 8.49233Z" fill="white"/>
    </g>
    <defs>
        <clipPath id="clip0_3055_1530">
            <rect width="156" height="26" fill="white"/>
        </clipPath>
    </defs>
</svg>